<?xml version="1.0" standalone="no"?>
<!DOCTYPE svg PUBLIC "-//W3C//DTD SVG 20010904//EN"
 "http://www.w3.org/TR/2001/REC-SVG-20010904/DTD/svg10.dtd">
<svg version="1.0" xmlns="http://www.w3.org/2000/svg"
 width="182.000000pt" height="182.000000pt" viewBox="0 0 182.000000 182.000000"
 preserveAspectRatio="xMidYMid meet">
<metadata>
Created by potrace 1.11, written by Peter Selinger 2001-2013
</metadata>
<g transform="translate(0.000000,182.000000) scale(0.100000,-0.100000)"
fill="#000000" stroke="none">
<path d="M1146 1524 c-22 -8 -62 -28 -88 -46 -149 -95 -201 -296 -120 -460 36
-74 87 -124 167 -166 66 -34 189 -42 263 -18 106 36 224 145 201 187 -9 17
-23 19 -148 19 l-137 0 -47 65 c-26 36 -47 70 -47 75 0 5 21 39 47 75 l47 65
142 0 c165 0 172 5 125 74 -64 92 -171 146 -291 145 -41 0 -93 -7 -114 -15z"/>
<path d="M636 783 c-138 -136 -260 -263 -273 -282 -90 -132 86 -308 218 -218
33 22 529 510 529 519 0 3 -27 22 -61 43 -54 33 -111 95 -154 170 -9 14 -47
-20 -259 -232z m-54 -294 c16 -21 18 -31 9 -48 -27 -49 -81 -50 -101 -2 -27
66 50 107 92 50z"/>
</g>
</svg>
